<?xml version="1.0" standalone="no"?><svg xmlns="http://www.w3.org/2000/svg" viewBox="0 0 1440 320"><path fill="#0099ff" fill-opacity="1" d="M0,128L10.4,112C20.9,96,42,64,63,42.7C83.5,21,104,11,125,37.3C146.1,64,167,128,188,144C208.7,160,230,128,250,101.3C271.3,75,292,53,313,69.3C333.9,85,355,139,376,181.3C396.5,224,417,256,438,261.3C459.1,267,480,245,501,229.3C521.7,213,543,203,563,186.7C584.3,171,605,149,626,138.7C647,128,668,128,689,149.3C709.6,171,730,213,751,234.7C772.2,256,793,256,814,245.3C834.8,235,856,213,877,176C897.4,139,918,85,939,58.7C960,32,981,32,1002,48C1022.6,64,1043,96,1064,122.7C1085.2,149,1106,171,1127,154.7C1147.8,139,1169,85,1190,80C1210.4,75,1231,117,1252,149.3C1273,181,1294,203,1315,186.7C1335.7,171,1357,117,1377,85.3C1398.3,53,1419,43,1430,37.3L1440,32L1440,320L1429.6,320C1419.1,320,1398,320,1377,320C1356.5,320,1336,320,1315,320C1293.9,320,1273,320,1252,320C1231.3,320,1210,320,1190,320C1168.7,320,1148,320,1127,320C1106.1,320,1085,320,1064,320C1043.5,320,1023,320,1002,320C980.9,320,960,320,939,320C918.3,320,897,320,877,320C855.7,320,835,320,814,320C793,320,772,320,751,320C730.4,320,710,320,689,320C667.8,320,647,320,626,320C605.2,320,584,320,563,320C542.6,320,522,320,501,320C480,320,459,320,438,320C417.4,320,397,320,376,320C354.8,320,334,320,313,320C292.2,320,271,320,250,320C229.6,320,209,320,188,320C167,320,146,320,125,320C104.3,320,83,320,63,320C41.7,320,21,320,10,320L0,320Z"></path></svg>