<?xml version="1.0" standalone="no"?><svg xmlns="http://www.w3.org/2000/svg" viewBox="0 0 1440 320"><path fill="#0099ff" fill-opacity="1" d="M0,224L12,213.3C24,203,48,181,72,160C96,139,120,117,144,133.3C168,149,192,203,216,202.7C240,203,264,149,288,117.3C312,85,336,75,360,85.3C384,96,408,128,432,160C456,192,480,224,504,224C528,224,552,192,576,170.7C600,149,624,139,648,112C672,85,696,43,720,32C744,21,768,43,792,64C816,85,840,107,864,133.3C888,160,912,192,936,213.3C960,235,984,245,1008,224C1032,203,1056,149,1080,128C1104,107,1128,117,1152,133.3C1176,149,1200,171,1224,186.7C1248,203,1272,213,1296,213.3C1320,213,1344,203,1368,176C1392,149,1416,107,1428,85.3L1440,64L1440,320L1428,320C1416,320,1392,320,1368,320C1344,320,1320,320,1296,320C1272,320,1248,320,1224,320C1200,320,1176,320,1152,320C1128,320,1104,320,1080,320C1056,320,1032,320,1008,320C984,320,960,320,936,320C912,320,888,320,864,320C840,320,816,320,792,320C768,320,744,320,720,320C696,320,672,320,648,320C624,320,600,320,576,320C552,320,528,320,504,320C480,320,456,320,432,320C408,320,384,320,360,320C336,320,312,320,288,320C264,320,240,320,216,320C192,320,168,320,144,320C120,320,96,320,72,320C48,320,24,320,12,320L0,320Z"></path></svg>